# xmcd
#
# Track frame offsets: 
#        150
#        16928
#        34583
#        57346
#        75706
#        92199
#        115682
#        139465
#        155478
#        178023
#        205616
#        230119
#        247519
#
# Disc length: 3536 seconds
#
# Revision: 0
# Processed by: cddbd v1.5.2PL0 Copyright (c) Steve Scherf et al.
# Submitted via: ExactAudioCopyFreeDBPlugin 1.0
#
DISCID=a20dce0d
DTITLE=Aretha Franklin - Aretha Remastered
DYEAR=2012
DGENRE=Blues
TTITLE0=Come To Me
TTITLE1=Can't Turn You Loose
TTITLE2=United Together
TTITLE3=Take Me With You
TTITLE4=Whatever It Is
TTITLE5=What A Fool Believes
TTITLE6=Together Again
TTITLE7=Love Me Forever
TTITLE8=School Days
TTITLE9=What A Fool Believes [12" Extended Version]
TTITLE10=Can't Turn You Loose [12" Extended Version]
TTITLE11=United Together [Single Version]
TTITLE12=What A Fool Believes [Single Version]
EXTD=
EXTT0=
EXTT1=
EXTT2=
EXTT3=
EXTT4=
EXTT5=
EXTT6=
EXTT7=
EXTT8=
EXTT9=
EXTT10=
EXTT11=
EXTT12=
PLAYORDER=
